HIERARCHY
ROOT Hips
{
	OFFSET	0	0	0
	CHANNELS 6  Xposition Yposition Zposition Xrotation Yrotation Zrotation
	JOINT Spine
	{
		OFFSET	0	3.86096	0.772842
		CHANNELS 3  Xrotation Yrotation Zrotation
		JOINT Spine1
		{
			OFFSET	0	6.59073	-1.17692
			CHANNELS 3  Xrotation Yrotation Zrotation
			JOINT Spine2
			{
				OFFSET	0	4.99601	0.535497
				CHANNELS 3  Xrotation Yrotation Zrotation
				JOINT Spine3
				{
					OFFSET	0	5.97874	1.77714
					CHANNELS 3  Xrotation Yrotation Zrotation
					JOINT Spine4
					{
						OFFSET	0	8.85041	-0.906225
						CHANNELS 3  Xrotation Yrotation Zrotation
						JOINT Neck
						{
							OFFSET	0	4.22513	-2.95994
							CHANNELS 3  Xrotation Yrotation Zrotation
							JOINT Head
							{
								OFFSET	0	5.07251	-1.51822
								CHANNELS 3  Xrotation Yrotation Zrotation
								End Site
								{
									OFFSET	0	10.5805	-0.511959
								}
							}
						}
					}
					JOINT LeftShoulder
					{
						OFFSET	-2.54214	10.757	-5.07251
						CHANNELS 3  Xrotation Yrotation Zrotation
						JOINT LeftArm
						{
							OFFSET	-5.56203	-1.51822	1.94781
							CHANNELS 3  Xrotation Yrotation Zrotation
							JOINT LeftForeArm
							{
								OFFSET	-18.5397	-0.846185	1.32335
								CHANNELS 3  Xrotation Yrotation Zrotation
								JOINT LeftHand
								{
									OFFSET	-14.8524	-1.02638	1.06015
									CHANNELS 3  Xrotation Yrotation Zrotation
									End Site
									{
										OFFSET	-5.42037	-0.374579	0.386875
									}
								}
							}
						}
					}
					JOINT RightShoulder
					{
						OFFSET	2.54214	10.757	-5.07251
						CHANNELS 3  Xrotation Yrotation Zrotation
						JOINT RightArm
						{
							OFFSET	5.56203	-1.51822	1.94781
							CHANNELS 3  Xrotation Yrotation Zrotation
							JOINT RightForeArm
							{
								OFFSET	18.5397	-0.846185	1.32335
								CHANNELS 3  Xrotation Yrotation Zrotation
								JOINT RightHand
								{
									OFFSET	14.8524	-1.02638	1.06015
									CHANNELS 3  Xrotation Yrotation Zrotation
									End Site
									{
										OFFSET	5.42037	-0.374579	0.386875
									}
								}
							}
						}
					}
				}
			}
		}
	}
	JOINT LeftUpLeg
	{
		OFFSET	-5.25642	-1.93048	-0.38642
		CHANNELS 3  Xrotation Yrotation Zrotation
		JOINT LeftLeg
		{
			OFFSET	-1.25813	-24.6526	-0.385374
			CHANNELS 3  Xrotation Yrotation Zrotation
			JOINT LeftFoot
			{
				OFFSET	-1.21384	-22.3749	1.92424
				CHANNELS 3  Xrotation Yrotation Zrotation
				JOINT LeftToeBase
				{
					OFFSET	0	-2.83303	-7.52453
					CHANNELS 3  Xrotation Yrotation Zrotation
					End Site
					{
						OFFSET	0	-1.13321	-4.53285
					}
				}
			}
		}
	}
	JOINT RightUpLeg
	{
		OFFSET	5.25642	-1.93048	-0.38642
		CHANNELS 3  Xrotation Yrotation Zrotation
		JOINT RightLeg
		{
			OFFSET	1.25813	-24.6526	-0.385374
			CHANNELS 3  Xrotation Yrotation Zrotation
			JOINT RightFoot
			{
				OFFSET	1.21384	-22.3749	1.92424
				CHANNELS 3  Xrotation Yrotation Zrotation
				JOINT RightToeBase
				{
					OFFSET	0	-2.83303	-7.52453
					CHANNELS 3  Xrotation Yrotation Zrotation
					End Site
					{
						OFFSET	0	-1.13321	-4.53285
					}
				}
			}
		}
	}
}
MOTION
Frames: 14
Frame Time: 0.033334
 0 12.7831 4.70897 -0 0 -0 -0 0 -0 -0 0 -0 -0 0 -0 -0 0 -0 -0 0 -0 -0 0 -0 -0 0 -0 -0 0 -0 -0 0 -0 -0 0 -0 -0 0 -0 -0 0 -0 -0 0 -0 -0 0 -0 -0 0 -0 -0 0 -0 -0 0 -0 -0 0 -0 -0 0 -0 -0 0 -0 -0 0 -0 -0 0 -0 -0 0 -0
 -7.40313 53.1185 -35.8565 176.667 -14.9992 -154.921 179.992 -179.922 173.784 0.0245655 -0.153971 -10.3603 0.177503 -0.461913 -10.3606 0.654377 -0.0778013 -6.21615 178.554 179.948 177.929 175.407 178.258 -170.011 178.739 -173.884 -177.714 178.251 -175.318 176.492 163.961 -136.406 -119.163 54.3833 -25.4974 31.1543 -0 33.5659 24.8045 169.044 161.504 -155.795 167.272 160.695 95.6696 44.0235 26.128 -22.9955 -0 -9.16627 -20.1811 27.573 16.0796 -43.1054 147.308 -161.568 -175.495 28.792 -0.269857 13.6401 8.58631 0 0 161.004 -165.278 139.783 7.91283 5.23457 10.288 171.172 179.517 -166.22 164.904 180 -180
 -6.96706 53.0715 -35.941 176.781 -15.3583 -154.139 179.992 -179.926 173.762 179.927 -179.854 169.603 0.104424 -0.436672 -10.397 0.654712 -0.0735554 -6.23802 178.366 179.941 177.922 175.024 178.41 -170.689 178.606 -174.368 -177.879 178.386 -175.167 176.761 162.975 -136.431 -119.663 54.8194 -25.6781 31.7189 -0 33.3309 25.1542 169.119 160.99 -155.946 165.528 159.027 96.5148 45.1562 27.6538 -24.9254 -0 -8.58471 -21.6272 27.8154 16.0084 -44.2731 147.827 -161.423 -175.999 29.8808 -0.318635 13.7063 8.59121 0 0 160.911 -164.525 139.832 7.22322 5.27395 9.72116 171.837 179.627 -166.44 164.913 180 -180
 -6.03069 53.1325 -36.0411 176.515 -15.3856 -154.296 179.991 -179.918 173.815 179.791 -179.838 169.692 0.000166518 -0.484658 -10.3081 0.675352 -0.0816235 -6.18463 178.065 179.93 177.94 174.353 178.649 -171.426 178.386 -174.811 -178.072 178.659 -174.962 177.305 163.277 -136.035 -118.881 54.3298 -25.6064 31.06 -0 33.6905 24.8016 169.173 161.299 -156.088 163.4 158.727 98.8688 46.1637 28.9855 -26.5935 -0 -7.94852 -22.8348 28.1518 16.5912 -45.5171 147.533 -161.172 -175.026 28.3554 -0.403789 13.6446 8.5969 0 0 161.267 -164.362 141.068 6.43224 5.67147 10.0514 171.794 179.527 -166.935 164.917 180 -180
 -5.86891 53.1348 -36.173 176.269 -13.3557 -153.115 179.999 -179.986 173.781 179.771 -179.973 169.636 0.0674637 -0.0807844 -10.3645 0.768289 -0.0136069 -6.21867 177.782 179.92 177.929 173.59 178.413 -171.466 178.157 -175.485 -178.046 178.649 -174.641 177.278 162.487 -135.928 -119.078 53.7943 -25.0803 30.0976 -0 34.1985 24.8679 169.53 161.832 -156.947 163.436 159.769 99.721 46.3873 29.3514 -27.14 -0 -7.32948 -23.2084 26.7333 16.0845 -48.7319 149.646 -161.451 -178.514 26.4659 -0.125168 14.3347 8.58037 0 0 161.984 -165.082 140.515 5.44768 5.94374 9.85961 171.213 179.762 -167.111 164.941 180 -180
 -5.18051 53.1359 -36.3779 176.077 -11.8792 -152.292 179.996 -179.965 173.728 179.667 -179.932 169.547 179.99 -179.795 169.547 0.827278 -0.0345912 -6.27156 177.457 179.907 177.912 172.772 178.43 -171.637 177.906 -175.832 -178.086 178.646 -174.168 177.264 161.718 -136.06 -119.75 53.3091 -24.5198 29.0375 -0 34.3735 24.8866 169.898 162.116 -157.817 163.55 161.067 101.224 45.613 28.5958 -26.1579 -0 -6.83393 -23.1453 26.5848 16.1525 -49.6744 149.531 -161.71 -177.379 27.2043 -0.0480788 14.2715 8.5861 0 0 162.493 -165.321 140.659 4.87488 6.2599 10.0248 170.461 179.585 -167.416 164.991 180 -180
 -4.47313 53.2013 -36.6285 175.985 -11.526 -151.327 179.998 -179.984 173.585 179.606 -179.967 169.309 179.977 -179.902 169.309 0.888971 -0.0164352 -6.41458 177.19 179.895 177.864 172.133 178.762 -172.499 177.697 -176.121 -178.314 178.623 -174.615 177.227 161.853 -136.495 -119.274 53.5805 -24.6897 29.3947 -0 34.2562 25.0217 170.448 162.597 -159.106 164.156 162.878 102.314 44.3345 27.1674 -24.1647 -0 -6.37807 -22.7711 26.2202 16.3519 -50.6251 150.513 -161.943 -175.787 27.6539 -0.0692395 14.3139 8.58451 0 0 162.723 -165.269 140.524 4.39708 6.34764 9.96897 169.191 179.617 -167.635 165.033 180 -180
 -3.87344 53.3531 -36.8606 175.738 -11.8686 -150.588 0.000471463 0.00412112 -6.52636 179.552 179.992 169.123 179.963 179.976 169.123 0.925583 0.00412112 -6.52636 176.994 179.886 177.828 171.634 178.753 -172.505 177.546 -176.266 -178.314 178.593 -175.27 177.178 162.038 -136.932 -118.829 53.8941 -24.758 29.84 -0 34.3402 25.3803 170.832 163.047 -160.009 164.924 164.282 102.646 43.9106 26.7012 -23.6157 -0 -5.70586 -22.6851 25.6006 16.7993 -51.2578 152.061 -162.268 -174.461 27.3169 -0.211599 14.3846 8.58163 0 0 162.713 -164.995 140.622 3.91067 6.3119 9.88472 167.523 179.598 -167.844 165.067 180 -180
 -3.07431 53.4619 -37.0478 175.734 -11.1132 -149.9 0.00180928 0.0155269 -6.64646 179.514 179.969 168.923 179.969 179.908 168.923 1.00295 0.0155269 -6.64646 176.736 179.874 177.788 170.957 178.793 -172.771 177.338 -176.573 -178.373 178.507 -175.754 177.017 161.954 -137.296 -118.63 55.0012 -25.1811 31.41 -0 34.728 26.7642 170.966 164.175 -160.379 165.737 166.371 103.39 43.8503 26.5458 -23.4036 -0 -4.61567 -22.2456 24.9301 17.6789 -51.946 153.815 -162.778 -172.571 27.9936 -0.192066 14.3537 8.58236 0 0 163.304 -164.658 140.889 3.15791 6.35572 9.97166 166.134 179.485 -168.044 165.098 180 -180
 -2.28308 53.5389 -37.3363 175.919 -11.1933 -149.462 0.00206705 0.0176017 -6.69785 179.427 179.965 168.837 179.891 179.896 168.837 0.966511 0.0176017 -6.69785 176.657 179.87 177.771 170.818 178.539 -172.893 177.296 -177.17 -178.35 178.316 -175.548 176.629 161.256 -137.313 -118.858 55.969 -25.5906 32.6926 -0 35.3959 28.3541 171.029 164.883 -160.57 166.057 167.417 104.082 43.7409 26.2614 -23.2769 -0 -3.4496 -21.6122 24.6605 18.209 -52.6691 155.468 -163.084 -169.664 27.4551 -0.35321 14.4369 8.57706 0 0 163.848 -164.17 141.336 2.9056 6.33564 10.0441 164.76 179.46 -168.176 165.125 180 -180
 -1.69212 53.637 -37.8522 176.526 -12.8002 -148.997 0.00560935 0.0472687 -6.76761 179.337 179.907 168.721 179.828 179.72 168.721 0.911409 0.0472687 -6.76761 176.602 179.866 177.748 170.76 178.313 -172.987 177.279 -177.674 -178.327 178.486 -175.685 176.973 161.146 -137.584 -119.183 57.3388 -26.3198 34.5738 -0 35.9211 29.8761 171.1 164.476 -160.703 165.113 167.121 104.062 43.1937 25.842 -22.3301 -0 -3.02849 -21.0981 24.7767 18.2934 -53.2096 157.447 -163.272 -166.532 26.2481 -0.551643 14.558 8.57711 0 0 164.805 -163.009 141.573 2.41742 6.17997 10.0528 163.171 179.562 -168.232 165.15 180 -180
 -0.933425 53.6872 -38.2733 176.714 -13.1713 -148.61 0.00286384 0.023882 -6.83803 179.288 179.953 168.603 179.724 179.859 168.603 0.772475 0.023882 -6.83803 176.845 179.874 177.724 171.493 178.01 -173.176 177.499 -178.206 -178.313 178.681 -175.375 177.357 160.888 -137.549 -120.215 58.4167 -26.7656 36.3803 -0 36.6565 31.5105 171.025 163.408 -160.467 164.204 166.309 104.175 42.8295 25.6772 -21.9277 -0 -3.08575 -21.0842 25.2385 18.3354 -53.0313 157.215 -163.177 -165.961 25.5572 -0.691692 14.6291 8.56872 0 0 165.264 -162.084 142.137 2.26274 5.44923 9.90661 161.78 179.293 -168.427 165.168 180 -180
 -0.13589 53.7176 -38.5041 176.833 -13.9685 -148.308 0.00311159 0.0257368 -6.89363 179.192 179.949 168.511 179.632 179.848 168.511 0.714814 0.0257368 -6.89363 176.797 179.872 177.706 171.478 178.185 -173.8 177.486 -178.391 -178.466 178.891 -175.753 177.785 159.245 -138.236 -122.315 60.1653 -27.6088 39.1071 -0 37.1132 33.4412 170.981 162.468 -160.315 163.53 165.655 104.405 42.4991 25.6623 -21.6456 -0 -3.27891 -21.0885 25.9516 18.8792 -53.0779 156.752 -163.043 -165.768 26.8239 -0.80388 14.5703 8.58273 0 0 165.523 -161.379 142.742 2.01879 4.79752 9.88735 160.61 179.26 -168.506 165.184 180 -180
 0.329964 53.7318 -38.8827 177.253 -14.1689 -147.95 0.000139081 0.00114866 -6.90381 179.096 179.998 168.494 179.504 179.993 168.494 0.618697 0.00114866 -6.90381 176.851 179.874 177.702 171.688 178.083 -173.263 177.557 -178.096 -178.344 179.352 -175.922 178.707 157.122 -138.546 -123.796 61.0525 -28.2334 40.4818 -0 38.1044 35.106 170.999 161.549 -160.31 163.562 165.286 104.592 43.0421 26.4817 -22.7206 -0 -2.88507 -20.9435 26.9672 18.755 -52.7963 155.83 -162.628 -165.846 26.7739 -0.788337 14.5749 8.57917 0 0 166.417 -159.985 143.062 1.04603 3.95249 9.7603 159.997 178.987 -168.748 165.198 180 -180
